<?xml version="1.0" encoding="UTF-8"?>
<svg width="204px" height="56px" viewBox="0 0 204 56" version="1.1" xmlns="http://www.w3.org/2000/svg" xmlns:xlink="http://www.w3.org/1999/xlink">
    <!-- Generator: Sketch 61.2 (89653) - https://sketch.com -->
    <title>浪首/导航logo/new@2x</title>
    <desc>Created with Sketch.</desc>
    <g id="控件" stroke="none" stroke-width="1" fill="none" fill-rule="evenodd">
        <g id="浪首/导航logo/new" fill="#FFFFFF" fill-rule="nonzero">
            <g id="浪首/导航logo">
                <path d="M24.878,29.354 C24.878,29.354 28.667,30.381 32.133,29.679 C32.133,29.679 23.376,56.995 20.886,55.786 C20.886,55.786 18.941,55.264 24.878,29.354 Z M200.316153,17 C201.980179,17 202.963689,18.3039949 202.579104,19.9458685 L202.534411,20.1168831 L196.395835,41.4085644 C195.49856,44.5207675 193.664666,46.2102492 190.894155,46.4770095 C189.329317,46.5659296 187.103896,46.6103896 184.217893,46.6103896 C184.358767,45.4544285 184.419431,44.0761671 184.399886,42.4756055 C185.887815,42.6534457 187.49758,42.7423657 189.229182,42.7423657 C190.600033,42.7423657 191.493257,42.1404879 191.908853,40.9367322 L191.970504,40.7416637 L197.008063,23.2688663 C195.94377,24.958348 194.167749,27.4481104 191.679999,30.7381537 C191.160671,31.5384345 190.753534,32.1164151 190.458588,32.4720955 C190.612661,33.2723763 190.879051,34.5172575 191.25776,36.2067392 C191.390915,36.8983736 191.529474,37.6647252 191.673436,38.505794 C191.674404,38.5114482 191.675333,38.517118 191.676224,38.5228029 C191.792218,39.2628617 191.250446,40.1223331 190.446647,40.5126875 L190.292961,40.5802377 L187.516617,41.6753247 C187.497326,41.4085644 187.455572,41.0528841 187.391354,40.6082836 C187.166718,39.7190827 186.983709,38.5186615 186.842328,37.00702 C185.098289,39.0521821 183.331786,41.008424 181.54282,42.8757459 C181.472256,42.7868258 181.283029,42.6089856 180.975137,42.3422253 C180.785276,42.1999532 180.617994,42.0861355 180.473293,42.0007722 L180.369001,41.9420849 L178.262371,42.7423657 C177.986208,40.6972037 177.684409,38.7409617 177.356973,36.8736399 C176.19137,38.1772175 174.495752,39.9853145 172.270118,42.2979308 C172.228881,42.340785 172.18506,42.3813633 172.139041,42.4193129 C171.64086,42.8301385 170.992717,42.8553416 170.691373,42.4756055 C170.375994,42.1792052 170.118519,41.9136799 169.918948,41.6790297 L169.806154,41.5419445 L168.344877,46.6103896 L163.727273,46.6103896 L171.36558,20.1168831 C171.843495,18.4592319 173.528295,17.1038157 175.189576,17.0056884 L175.381088,17 L200.316153,17 Z M135.492987,36.8888312 C132.176623,45.4919953 123.71803,46.1912779 123.498886,46.2079901 L123.494545,46.2083117 L125.068571,41.0919481 C128.002482,40.1569986 129.885776,38.3419593 130.614083,37.0370541 L130.692987,36.8888312 L135.492987,36.8888312 Z M150.176623,35.067013 C150.176623,35.067013 150.736104,36.8997403 152.361558,38.7293506 C153.524156,38.0903896 155.046753,36.9885714 156.382338,35.1106494 C159.091554,35.1441827 160.544329,35.1326195 160.81591,35.1298682 L160.862857,35.1293506 C160.862857,35.1293506 158.695065,38.8524675 154.845714,40.798961 C155.913127,41.4362438 157.193004,41.9526873 158.734376,42.2097812 L159.125195,42.2685714 L157.892468,46.2067532 C157.892468,46.2067532 147.379178,45.7939596 145.060572,35.4750885 L144.983896,35.1153247 L150.176623,35.067013 Z M156.775065,17 L156.193766,18.9122078 L156.87777,18.9128264 C156.851763,18.9176483 157.0677,18.9318138 161.191688,18.9184416 C163.38126,18.9123636 165.745647,20.0351838 165.134492,22.4631256 L165.081558,22.6524675 L161.638961,33.9090909 L143.433247,33.8935065 L141.274805,41.0015584 C140.656456,42.8189024 141.420271,42.8570931 142.659465,42.8138804 L142.784935,42.8093506 L146.221299,42.8093506 L145.275325,46.1942857 L139.856623,46.1942857 C138.15013,46.2675325 136.724156,46.0322078 135.976104,45.2109091 C135.427987,44.4790909 135.257727,43.7157846 135.798633,41.8428808 L135.873247,41.5922078 L142.733506,18.9122078 L151.043117,18.9122078 L151.633766,17 L156.775065,17 Z M95.9537662,23.3319481 L96.3542857,26.4519481 L100.431169,26.4519481 L102.655065,23.3631169 L107.473766,23.3631169 L105.245195,26.4519481 L108.089351,26.4519481 L107.129351,29.614026 L99.6753247,29.614026 L98.9023377,32.1620779 L106.381299,32.1620779 L105.41974,35.3116883 L97.947013,35.3116883 L94.6477922,46.1880519 L89.8742857,46.1880519 L93.214026,35.3116883 L85.8815584,35.3116883 L86.8368831,32.1620779 L94.1849351,32.1620779 L94.9641558,29.614026 L87.6441558,29.614026 L88.5651948,26.4519481 L91.5402597,26.4519481 L91.1381818,23.3319481 L95.9537662,23.3319481 Z M128.72,17.7979221 L127.764675,20.9755844 L117.634805,20.9755844 C116.579166,20.9755844 116.283028,22.1700845 116.254779,22.2958214 L116.252468,22.3064935 L115.001039,26.4519481 L126.098701,26.4519481 L125.138701,29.6296104 L123.087792,29.6296104 L118.080519,46.1818182 L113.046753,46.1818182 L118.050909,29.6296104 L114.036364,29.6296104 L109.032208,46.1818182 L103.995325,46.1818182 L108.999481,29.6296104 L109.961039,26.4519481 L111.081558,22.7506494 C111.081558,22.7506494 112.481608,18.0021361 117.13247,17.8042814 L117.433766,17.7979221 L128.72,17.7979221 Z M68.469,27.133 C72.078,27.133 74.536,27.629 75.848,28.619 C77.0976667,29.56775 77.4656667,31.031724 76.9414384,33.0214835 L76.868,33.284 L74.491,40.989 C74.491,40.989 69.934,45.768 60.963,45.768 C59.089,45.768 56.75,45.242 55.785,44.211 C54.83,43.17 54.587,41.845 55.065,40.232 C55.446,38.945 56.082,37.886 56.971,37.07 C57.859,36.257 58.965,35.613 60.292,35.14 C61.6,34.665 63.16,34.335 64.953,34.132 C65.8455,34.03375 66.7644375,33.9641875 67.69125,33.9001094 L68.62,33.837 L67.634,37.183 C67.302,37.211 66.98,37.23 66.612,37.275 C65.579,37.385 64.783,37.513 64.224,37.658 C63.536,37.835 62.974,38.093 62.54,38.433 C62.104,38.775 61.807,39.222 61.64,39.771 C61.532,40.139 61.484,40.437 61.486,40.666 C61.486,40.898 61.597,41.117 61.813,41.326 C62.026,41.535 62.303,41.691 62.648,41.787 C62.993,41.89 63.566,41.935 64.367,41.935 C65.001,41.935 65.678,41.823 66.397,41.593 C66.9945,41.3996667 67.5551944,41.1570278 68.073875,40.8633472 L68.38,40.681 L70.519,33.593 C70.806,32.616 70.562,31.944 69.779,31.573 C68.998,31.2 67.738,31.009 65.999,31.009 C62.5287895,31.009 59.3164515,32.2130374 59.1497843,32.2764078 L59.143,32.279 L60.474,27.99 C61.186,27.83 64.731,27.133 68.469,27.133 Z M15.348,27.097 C16.828,27.097 18.205,27.229 19.483,27.495 C20.6439091,27.7395455 21.5535785,27.9956612 22.2150135,28.267855 L22.406,28.35 L20.955,33.246 C20.096,32.48 19.143,31.822 17.738,31.412 C16.63,31.088 15.479,30.873 14.247,30.873 C13.229,30.873 12.328,30.996 11.555,31.248 C10.782,31.502 10.328,31.853 10.193,32.316 C10.067,32.738 10.13,33.054 10.382,33.275 C10.632,33.496 11.317,33.718 12.425,33.935 C13.038,34.048 13.698,34.166 14.414,34.275 C15.129,34.386 15.836,34.523 16.535,34.693 C18.086,35.08 19.142,35.691 19.694,36.521 C20.245,37.357 20.336,38.4 19.965,39.646 C19.423,41.466 18.071,42.941 15.904,44.056 C13.738,45.177 11.069,45.734 7.882,45.734 C6.12,45.734 4.568,45.588 3.22,45.295 C1.99454545,45.0268182 1.01123967,44.7363223 0.268580015,44.4182532 L0.053,44.322 L1.548,39.302 C1.548,39.302 2.033,39.806 2.924,40.31 C3.29,40.517 3.784,40.803 4.468,41.076 C5.058,41.316 5.742,41.529 6.524,41.699 C7.308,41.873 8.176,41.955 9.127,41.955 C10.376,41.955 11.335,41.834 12.005,41.588 C12.678,41.342 13.086,40.979 13.229,40.5 C13.359,40.067 13.273,39.754 12.976,39.559 C12.685,39.367 12.07,39.182 11.136,39.002 C10.691,38.908 10.085,38.806 9.315,38.699 C8.541,38.584 7.845,38.449 7.24,38.293 C5.566,37.879 4.426,37.223 3.821,36.336 C3.214,35.451 3.106,34.349 3.498,33.025 C4,31.322 5.319,29.91 7.457,28.785 C9.594,27.656 12.226,27.097 15.348,27.097 Z M48.755,27.154 C50.885,27.154 53.337,27.705 54.202,28.816 C55.0229091,29.8793636 55.1476942,31.4365744 54.5728764,33.5006783 L54.486,33.799 L50.805,45.711 L44.44,45.711 L47.284,36.531 C47.502,35.818 47.676,35.109 47.814,34.402 C47.942,33.693 47.962,33.172 47.863,32.838 C47.748,32.449 47.492,32.162 47.095,31.984 C46.697,31.808 46.093,31.722 45.29,31.722 C44.713,31.722 44.102,31.804 43.457,31.97 C42.9058571,32.1122857 42.2959388,32.3309796 41.6272449,32.6229329 L41.288,32.775 L37.297,45.711 L30.931,45.711 L35.95,29.4 C35.95,29.4 41.286,27.154 48.755,27.154 Z M102.223377,36.6036364 C102.223377,36.6036364 102.023006,39.0402628 103.622865,40.568319 L103.783377,40.7132468 L102.535065,44.8493506 C102.535065,44.8493506 98.1003162,43.0045433 98.3284452,36.9505486 L98.345974,36.6098701 L102.223377,36.6036364 Z M92.0638961,36.6036364 C89.4354417,44.5621365 83.5276578,44.8312234 83.0331012,44.8397544 L83,44.84 L84.2748052,40.6306494 C86.9914439,39.747288 88.015344,36.7850735 88.0732234,36.6115897 L88.0758442,36.6036364 L92.0638961,36.6036364 Z M174.766804,24.3359073 L170.575247,38.8743419 C171.017666,38.3408213 171.790312,37.4960805 172.893187,36.3401193 C174.464117,34.5617176 175.666364,33.2279162 176.499929,32.3387153 C176.300929,31.3605944 176.002429,29.8934129 175.60443,27.9371709 C175.200085,26.3366093 174.920876,25.1361881 174.766804,24.3359073 Z M185.070367,27.1368901 C183.666201,29.004212 182.287672,30.7826138 180.934779,32.4720955 C181.043924,33.0945361 181.255742,34.028197 181.570232,35.2730783 C181.794869,36.1622792 181.939296,36.8291798 182.003514,37.2737803 C183.33077,35.6732187 184.670845,34.028197 186.023738,32.3387153 C185.670666,30.5603136 185.352876,28.8263718 185.070367,27.1368901 Z M134.244675,26.4176623 L134.240707,26.4373893 C134.184099,26.729663 133.589361,30.1874831 136.898251,31.2968543 L137.124675,31.3672727 L135.997922,35.0966234 C135.997922,35.0966234 127.448719,34.5183798 129.408928,26.7329395 L129.492987,26.4176623 L134.244675,26.4176623 Z M158.367792,27.8763636 L145.267532,27.8763636 L144.421299,30.6706494 L157.515325,30.6161039 L158.367792,27.8763636 Z M196.10335,21.001404 L177.286611,21.001404 C176.476537,21.001404 175.632627,21.6194695 175.329263,22.4097572 L175.278858,22.5598456 L174.959077,23.6690067 L178.556681,22.2018252 C179.226275,24.6619477 179.685192,26.5737296 179.933434,27.9371709 C181.103573,26.3810694 182.291514,24.7632178 183.497258,23.0836161 L184.222841,22.0684451 L186.262461,23.002106 L188.369091,22.2018252 C188.837739,24.6915877 189.213274,26.5589096 189.495698,27.8037908 C190.015027,27.00351 190.842119,25.8030888 191.976975,24.2025272 C192.699893,23.2244062 193.236934,22.470438 193.588097,21.9406224 L193.67926,21.8016848 L197.007858,23.2695776 L197.212479,22.5598456 C197.460628,21.6991421 196.964054,21.001404 196.10335,21.001404 Z M30.358,4.117 C31.583,2.353 33.528,-0.127 35.646,0.207 C36.588,0.357 36.275,1.654 35.667,3.283 C35.276,4.332 34.245,7.045 36.218,6.711 C37.156,6.553 37.994,5.326 38.688,4.629 C40.241,3.076 41.646,1.67 43.309,1.375 C45.036,1.067 44.7,2.594 44.017,3.686 C43.579,4.389 41.851,7.237 42.981,7.682 C43.77,7.992 44.53,7.461 45.507,6.711 C46.695,5.801 48.441,4.764 49.99,4.578 C50.942,4.463 51.311,4.887 51.324,5.367 C51.342,6.049 50.671,6.961 50.113,7.662 C49.134,8.885 48.246,9.82 48.516,10.699 C48.658,11.164 49.014,11.805 49.27,12.586 C52.738,23.168 38.448,28.01 29.436,27.785 C21.262,27.584 11.248,23.592 17.036,12.306 L17.0492188,12.2775802 C17.1817959,11.9686006 17.869,9.8865 18.669,8.324 C19.301,7.097 20.157,6.402 20.557,6.732 C20.775,6.908 20.746,7.398 20.734,7.699 C20.709,8.271 20.487,9.619 21.264,9.855 C22.174,10.135 22.702,8.273 22.934,7.709 C23.367,6.658 23.721,5.801 24.339,4.834 C25.043,3.738 26.325,2.935 26.661,3.914 C26.971,4.814 26.255,6.81 26.887,7.185 C28.328,8.043 29.673,5.109 30.358,4.117 Z M136.912727,17.7979221 C136.912727,17.7979221 136.379326,21.180102 139.653899,22.3574913 L139.883117,22.4342857 L138.747013,26.1683117 C138.747013,26.1683117 130.405679,25.7755107 132.086284,18.1167728 L132.161039,17.7979221 L136.912727,17.7979221 Z M43.235,18.098 C43.659,13.748 38.228,10.658 31.584,11.049 C25.4,11.414 20.142,14.713 19.451,18.531 C18.739,22.461 23.025,25.848 29.459,26.01 C36.399,26.182 42.802,22.588 43.235,18.098 Z M158.850551,22.156354 L158.696623,22.1568831 C150.783143,22.1800152 148.169286,22.1859797 147.347465,22.1875176 L146.992727,22.1880519 L146.244675,24.6503896 L159.354286,24.6503896 C159.354286,24.6503896 159.457143,24.3371429 159.658182,23.5392208 C159.797257,23.004426 160.004924,22.2506664 158.989976,22.163826 L158.850551,22.156354 Z M30.416,14.058 C33.458,13.888 35.736,16.089 35.408,19.027 C35.077,22.031 32.178,24.502 29.043,24.492 C26.018,24.48 23.992,22.139 24.417,19.316 C24.833,16.546 27.477,14.216 30.416,14.058 Z M28.6029346,18.5217928 L28.465,18.522 C27.501,18.563 26.628,19.406 26.501,20.422 C26.37,21.443 27.048,22.264 28.022,22.247 C29.01,22.233 29.919,21.368 30.037,20.323 C30.149,19.28 29.444,18.481 28.465,18.522 Z M103.513766,17.0155844 L102.923117,18.9402597 L102.954286,18.9402597 L110.414545,18.9542857 L109.431169,22.1054545 L89.8680519,22.1054545 L90.7844156,18.9402597 L97.8831169,18.9402597 L98.4768831,17.0155844 L103.513766,17.0155844 Z M30.598,18.143 C30.288,18.154 30.007,18.426 29.966,18.754 C29.924,19.084 30.142,19.352 30.457,19.344 C30.777,19.338 31.07,19.059 31.106,18.721 C31.143,18.387 30.914,18.125 30.598,18.143 Z" id="形状结合"></path>
            </g>
        </g>
    </g>
</svg>